<svg xmlns="http://www.w3.org/2000/svg">
  <symbol
    id="logo"
    viewBox="0 0 188 80"
    fill="none"
    width="188" 
    height="80"
  >
    <rect width="188" height="80" fill="#032A14" rx="10"/>
    <path fill="#fff" d="M49.81 63.3c-5.3 0-13.55-1.49-13.55-17.13 0-4.08-.03-6.78-.06-8.63-.65.1-1.27.05-1.76-.05v.82c0 1.72-.3 3.23-.74 4.13-.45-.9-.74-2.41-.74-4.13v-1.87c0-1.72.3-3.23.74-4.13.43.87.71 2.33.73 3.98.45.12.98.22 1.74-.02-.07-4.03-.02-2.43 1-6.44.6-2.4 1.26-4.37 2.12-5.98a4.44 4.44 0 0 0-1.53-2.5c-2.63 2.15-4.8 5.57-6.62 11.1-.6 1.84-1.9 3.15-5.52 3.67 1.5 1.57 3.62 4.37 3.92 7.78.59 6.68 2.9 12.42 6.11 15.39 3.22 2.97 6.93 4.55 12.38 4.55.97 0 4.5-.54 1.78-.54ZM26.2 52.13c0 1.06-.98 1.92-2.2 1.92-1.22 0-2.21-.86-2.21-1.92s.99-1.93 2.2-1.93c1.23 0 2.21.87 2.21 1.93Z"/>
    <path fill="#fff" d="m36.94 60.94-.1-.07a13.62 13.62 0 0 1-14.3.53 8.58 8.58 0 0 1-4.03-5.58c-.52-2.29-.13-4.6 1.05-6.18 1.18-1.59 3.46-2.47 5.69-2.2 1.79.2 3.12 1.14 3.64 2.54.43 1.17.4 2.22-.1 3.1a3.92 3.92 0 0 1-5.26 1.48c-.65-.4-1.02-.99-1.09-1.77-.05-.63.15-1.07.6-1.32.51-.28 1.25-.25 1.63-.04l.47-.7a2.9 2.9 0 0 0-2.57.05c-.43.23-1.14.82-1.03 2.08.09 1.02.6 1.85 1.49 2.38a4.88 4.88 0 0 0 6.57-1.78c.61-1.1.66-2.35.15-3.74-.64-1.7-2.24-2.84-4.38-3.1-2.56-.3-5.2.73-6.57 2.57-1.3 1.76-1.74 4.3-1.17 6.8a9.39 9.39 0 0 0 4.41 6.09A14.46 14.46 0 0 0 29.27 64c2.65 0 5.53-.74 8.3-2.6l-.63-.46ZM45.97 36.56c-1.24 1-2.52 1.76-4.87 1.06-1.2-.36-1.5-.84-2.36-1.1-.23.13-.52.3-.8.43 3.26 1.24 3.62 4.9 3.98 8.62.5 5.16.04 9.51-2.07 12.75-.75 1.16-2.9 2.11-2.59 1.61 1.23.22.59 1.67 2.31 1.24 2.39-.6 6.5-2.98 7.3-9.43.67-5.38.6-11.64-.9-15.18Z"/>
    <path stroke="#fff" stroke-width="1.63" d="M53.24 27.3c.34.78 2.77-.09 1.97-1.96-.3-.7-1.52-1.6-3-1.35-1.97.34-3.32 2.23-2.2 4.46 1.1 2.22 3.87 3.09 6.82 2 3.59-1.31 4.63-6.86-.12-10.25-5.16-3.69-13.08-1.75-15.64.64"/>
    <path fill="#fff" d="M51.4 26.43c0 1.07 1 1.93 2.21 1.93 1.23 0 2.21-.86 2.21-1.93 0-1.06-.98-1.92-2.2-1.92-1.22 0-2.21.86-2.21 1.92ZM53.4 52.13c0 1.06 1 1.92 2.21 1.92 1.22 0 2.21-.86 2.21-1.92s-.99-1.93-2.2-1.93c-1.23 0-2.22.87-2.22 1.93Z"/>
    <path stroke="#fff" stroke-width="1.63" d="M54.7 51.08c.9-.49 3.1-.28 2.92 1.74-.2 2.36-2.86 2.96-4.62 2.45-1.5-.44-3.91-2.18-2.7-5.42 1.4-3.78 7.27-3.69 9.72-.4 2.44 3.3.83 9.48-3.92 12.26-4.31 2.54-11.37 2.87-16.14-1.63-4.11-3.9-4.43-11.5-4.2-16.43"/>
    <path fill="#fff" d="M16.88 19.6c.86-.99 3.18-.92 4.22.14 1.68 1.72-1.14 3.9.06 4.28-.86 1.26-1.06 3.77-.32 4.54.55.58 1.17 1.6 2.17 2.23.34.2.5.42.94.52-3-.4-4.52-2.7-4.76-4.31-.45-2.99.12-3.68.05-5.2-.06-1.47-1.25-2.1-2.36-2.2ZM18.96 38.54c2.1-.73 4.93 1.43 4.02 4.48-1.09 3.7-5.25 5.27-4.6 7.3-1.28 2.25-.63 3.46-.3 5.2.44 2.25 2.28 5.05 4.58 6.82-2.93-1.16-6.5-5.36-6.5-10.35 0-4.76 3.46-7.43 3.99-9.74.26-1.13.28-2.22-1.2-3.71ZM60.1 38.45c-2.18-.73-5.12 1.43-4.18 4.48 1.13 3.7 5.45 5.26 4.77 7.29 1.34 2.25.66 3.47.31 5.21-.45 2.25-2.36 5.05-4.75 6.82C59.3 61.09 63 56.89 63 51.9c0-4.76-3.6-7.43-4.14-9.74-.27-1.13-.3-2.22 1.23-3.71ZM55.29 31.1c2.85 2.56-2.33 4.24-2.58 5.77-.19 1.12.46 1.36 1.66 2.08-3.23 1.53-6.12-1.6-4.52-4.49 1.32-2.38 4.7-2.32 3.96-3.36 1.97.1 1.48 0 1.48 0ZM28.21 26.43c0 1.07-.99 1.93-2.2 1.93-1.23 0-2.21-.86-2.21-1.93 0-1.06.98-1.92 2.2-1.92 1.22 0 2.21.86 2.21 1.92ZM39.85 21.65l.27.84c1.48-2.1 3.5-3.37 6.58-3.93 2.47-.46 1.3-.79 1.3-.79-3.65.37-6.75 1.1-9.4 2.94l1.25.94Z"/>
    <path fill="#fff" d="M26.56 18.62c7.34-1.07 10.01 1.14 10.3 1.41 3.55 3.28 3.48 5.67 3.48 8.79 0 2.48-.35 4.65-2.22 6.51-1.78 1.76-3.57 1.2-3.88 1.07-.35-.13-.4-.44-.04-.66-.01-.16-.02-.35-.06-.59-1.21.1-1.28 1.72-.15 2.04 3.47.98 5.52-1.7 7.25-3.3 1.56-1.44 2.78-2.83 4.57-2.78.26-1 .62-2.55-.04-5.3-1.23-5.15-4.9-7.55-9.85-8.18-6.84-.86-9.36.99-9.36.99Z"/>
    <path stroke="#fff" stroke-width="1.63" d="M26.38 27.3c-.33.78-2.77-.09-1.97-1.96.3-.7 1.52-1.6 3-1.35 1.97.34 3.32 2.23 2.2 4.46a4.95 4.95 0 0 1-6.82 2c-2.48-1.36-3.6-6.03 1.3-9.96 4.93-3.93 11.9-2.04 14.46.35"/>
    <path fill="#fff" d="m36.33 35.34.02.62.4.12s.44-.23.59-.34a4.06 4.06 0 0 0-1.01-.4ZM78 17h-1v46h1zM97.62 36.18c-.93 0-1.8-.16-2.63-.49a4.32 4.32 0 0 1-1.91-1.4.98.98 0 0 1-.09-.49.62.62 0 0 1 .7-.57c.18.02.33.11.45.27.4.42.9.75 1.5 1s1.26.37 1.98.37c.98 0 1.79-.26 2.43-.76.63-.52.95-1.22.95-2.12 0-.9-.27-1.58-.81-2.07a2.89 2.89 0 0 0-2.05-.74h-1.12a.67.67 0 0 1-.47-.16.61.61 0 0 1-.18-.45c0-.2.06-.35.18-.45a.61.61 0 0 1 .45-.18h1.01a2.3 2.3 0 0 0 1.7-.67c.45-.44.68-1.06.68-1.85 0-.78-.27-1.37-.81-1.75-.54-.4-1.24-.6-2.09-.6-.64 0-1.21.13-1.73.37-.51.24-.93.57-1.26 1a.85.85 0 0 1-.47.35.6.6 0 0 1-.5-.1.67.67 0 0 1-.3-.39.6.6 0 0 1 .12-.5 4.96 4.96 0 0 1 4.14-2.02c.84 0 1.58.16 2.21.47.65.3 1.16.72 1.52 1.26.37.54.55 1.15.55 1.83 0 .76-.21 1.41-.64 1.97a3.8 3.8 0 0 1-1.52 1.17c.48.14.93.37 1.35.7a3.46 3.46 0 0 1 1.4 2.84c0 .8-.2 1.52-.6 2.14-.41.63-.98 1.12-1.7 1.48-.7.36-1.52.54-2.44.54Zm11.92-.09a4.74 4.74 0 0 1-4.36-2.41 5.25 5.25 0 0 1-.62-2.6c0-.98.2-1.84.6-2.59a4.6 4.6 0 0 1 1.67-1.78 4.6 4.6 0 0 1 2.45-.65c.9 0 1.7.21 2.37.63.68.41 1.21.98 1.58 1.71.38.74.56 1.57.56 2.5 0 .2-.06.35-.18.47a.67.67 0 0 1-.47.17h-7.27c.07.64.27 1.22.6 1.72a3.53 3.53 0 0 0 3.08 1.59c.43 0 .86-.07 1.3-.22.44-.15.79-.35 1.05-.57a.7.7 0 0 1 .45-.17.6.6 0 0 1 .44.13c.15.14.23.3.23.47a.5.5 0 0 1-.2.43 5.3 5.3 0 0 1-3.28 1.17Zm-.27-8.78c-.92 0-1.68.28-2.28.86-.6.56-.96 1.3-1.08 2.21h6.59a3.5 3.5 0 0 0-1.01-2.21 2.96 2.96 0 0 0-2.21-.86Zm10.54-1.16c.31 0 .54.16.68.47l3.91 8.5c.08.17.09.33.02.48a.68.68 0 0 1-.34.35c-.41.18-.71.07-.9-.31l-3.32-7.42-3.4 7.4a.65.65 0 0 1-.4.36.73.73 0 0 1-.52-.05.77.77 0 0 1-.36-.34.62.62 0 0 1 .02-.49l3.96-8.48c.15-.31.36-.47.65-.47Zm11.37 9.94a4.74 4.74 0 0 1-4.36-2.41 5.25 5.25 0 0 1-.62-2.6c0-.98.2-1.84.6-2.59a4.6 4.6 0 0 1 1.67-1.78 4.6 4.6 0 0 1 2.44-.65c.92 0 1.7.21 2.38.63.68.41 1.21.98 1.58 1.71.38.74.56 1.57.56 2.5 0 .2-.06.35-.18.47a.67.67 0 0 1-.47.17h-7.27c.07.64.27 1.22.6 1.72a3.53 3.53 0 0 0 3.07 1.59c.44 0 .87-.07 1.3-.22.44-.15.8-.35 1.06-.57a.7.7 0 0 1 .45-.17.6.6 0 0 1 .43.13c.16.14.24.3.24.47a.5.5 0 0 1-.2.43 5.3 5.3 0 0 1-3.28 1.17Zm-.27-8.78c-.92 0-1.68.28-2.28.86-.6.56-.96 1.3-1.08 2.21h6.59a3.5 3.5 0 0 0-1.01-2.21 2.96 2.96 0 0 0-2.22-.86Zm7.55 8.69a.72.72 0 0 1-.5-.18.75.75 0 0 1-.18-.52v-8.44c0-.22.06-.39.18-.5.13-.14.3-.2.5-.2s.37.06.49.2c.13.11.2.28.2.5v3.56h6.35v-3.56c0-.22.06-.39.2-.5.13-.14.3-.2.5-.2s.37.06.49.2c.12.11.18.28.18.5v8.44c0 .21-.06.39-.18.52a.66.66 0 0 1-.49.18.72.72 0 0 1-.5-.18.7.7 0 0 1-.2-.52v-3.64h-6.36v3.64a.7.7 0 0 1-.2.52.66.66 0 0 1-.48.18Zm15.98.09a4.8 4.8 0 0 1-4.23-2.45 5.17 5.17 0 0 1-.63-2.55 4.84 4.84 0 0 1 2.45-4.36c.75-.44 1.6-.67 2.55-.67a4.86 4.86 0 0 1 4.32 2.45c.44.76.67 1.62.69 2.58v4.23c0 .2-.07.37-.2.5a.72.72 0 0 1-.5.18.72.72 0 0 1-.51-.18.68.68 0 0 1-.2-.5v-1.1c-.4.57-.94 1.03-1.58 1.37-.65.33-1.37.5-2.16.5Zm.14-1.26a3.53 3.53 0 0 0 3.15-1.82c.33-.57.49-1.22.49-1.92a3.8 3.8 0 0 0-.49-1.93c-.31-.56-.74-1-1.3-1.33a3.44 3.44 0 0 0-1.85-.5 3.59 3.59 0 0 0-3.17 1.84 3.8 3.8 0 0 0-.48 1.92 3.59 3.59 0 0 0 3.65 3.74Zm7.47.99c-.15-.13-.22-.28-.22-.43.01-.16.07-.3.18-.45l2.12-2.68a2.84 2.84 0 0 1-2.05-2.88c0-.63.15-1.18.43-1.66.3-.5.72-.88 1.25-1.15a3.87 3.87 0 0 1 1.81-.42h3.2c.22 0 .4.07.51.2.13.12.2.29.2.5v8.47a.75.75 0 0 1-.22.5.66.66 0 0 1-.48.18.7.7 0 0 1-.49-.18.75.75 0 0 1-.18-.52v-2.7h-2.48l-2.56 3.15a.62.62 0 0 1-.54.25.66.66 0 0 1-.48-.18Zm3.52-4.41h2.54v-3.98h-2.54c-.6 0-1.12.18-1.53.54-.4.35-.6.82-.6 1.4 0 .64.2 1.14.6 1.5.41.36.92.54 1.53.54ZM98.01 56.09c-.95 0-1.8-.22-2.54-.65a4.93 4.93 0 0 1-2.37-4.35c0-.96.2-1.82.61-2.58a4.6 4.6 0 0 1 4.12-2.45c1.5 0 2.72.58 3.66 1.73.13.15.18.3.14.47a.71.71 0 0 1-.3.41.6.6 0 0 1-.46.11.76.76 0 0 1-.41-.27 3.35 3.35 0 0 0-2.63-1.19c-.67 0-1.26.17-1.78.49-.5.32-.9.77-1.19 1.33a4.37 4.37 0 0 0-.41 1.95c0 .72.15 1.36.45 1.92A3.37 3.37 0 0 0 98 54.83a3.4 3.4 0 0 0 2.32-.77.8.8 0 0 1 .45-.2.6.6 0 0 1 .44.14c.14.13.22.28.23.45a.47.47 0 0 1-.16.43c-.88.8-1.97 1.21-3.28 1.21Zm7.03-.09a.75.75 0 0 1-.52-.18.72.72 0 0 1-.18-.5v-8.46c0-.2.06-.38.18-.5a.7.7 0 0 1 .53-.2c.2 0 .36.06.48.2.13.12.2.3.2.5v.4a3.49 3.49 0 0 1 2.7-1.2 3.48 3.48 0 0 1 3.04 1.68c.34-.53.79-.94 1.35-1.24a3.96 3.96 0 0 1 3.76.05c.56.34.98.81 1.28 1.42.31.61.47 1.33.47 2.16v5.19c0 .2-.07.37-.2.5a.66.66 0 0 1-.48.18.72.72 0 0 1-.5-.18.68.68 0 0 1-.2-.5v-5.19a2.9 2.9 0 0 0-.67-2.01 2.18 2.18 0 0 0-1.71-.76c-.75 0-1.36.25-1.84.76a2.7 2.7 0 0 0-.68 1.98V55.32c0 .2-.07.37-.2.5a.66.66 0 0 1-.49.18.72.72 0 0 1-.5-.18.68.68 0 0 1-.2-.5v-5.19a2.9 2.9 0 0 0-.66-2.01 2.18 2.18 0 0 0-1.72-.76c-.74 0-1.35.25-1.83.74a2.56 2.56 0 0 0-.72 1.89v5.33c0 .2-.07.37-.2.5a.66.66 0 0 1-.48.18Zm17.05 4.21a.7.7 0 0 1-.52-.2.68.68 0 0 1-.18-.5v-8.5a4.88 4.88 0 0 1 4.99-4.95 4.99 4.99 0 0 1 4.36 2.45c.44.76.66 1.62.66 2.58a5.06 5.06 0 0 1-2.38 4.35 4.8 4.8 0 0 1-2.48.65 4.45 4.45 0 0 1-3.76-1.87v5.29c0 .22-.07.38-.2.5a.62.62 0 0 1-.48.2Zm4.29-5.38c.7 0 1.32-.16 1.87-.49.55-.32.99-.76 1.3-1.33.32-.57.48-1.22.48-1.92a3.8 3.8 0 0 0-.48-1.93c-.31-.56-.75-1-1.3-1.33a3.53 3.53 0 0 0-1.87-.5c-.69 0-1.3.16-1.85.5-.56.32-.99.77-1.3 1.33-.31.56-.47 1.2-.47 1.93 0 .7.16 1.35.47 1.92a3.6 3.6 0 0 0 3.15 1.82Zm12.2 1.26a4.74 4.74 0 0 1-4.36-2.41 5.25 5.25 0 0 1-.62-2.6c0-.98.2-1.84.6-2.59a4.6 4.6 0 0 1 1.67-1.78 4.6 4.6 0 0 1 2.44-.65c.92 0 1.7.21 2.38.63.68.41 1.21.98 1.58 1.71.38.74.56 1.57.56 2.5 0 .2-.06.35-.18.47a.67.67 0 0 1-.47.17h-7.27c.07.64.27 1.22.6 1.72a3.53 3.53 0 0 0 3.07 1.59c.44 0 .87-.07 1.3-.22.44-.15.8-.35 1.06-.57a.7.7 0 0 1 .45-.17.6.6 0 0 1 .43.13c.16.14.24.3.24.47a.5.5 0 0 1-.2.43 5.3 5.3 0 0 1-3.28 1.17Zm-.27-8.78c-.92 0-1.68.28-2.28.86-.6.56-.96 1.3-1.08 2.21h6.59a3.5 3.5 0 0 0-1.01-2.21 2.96 2.96 0 0 0-2.22-.86Zm10.54-1.16c.31 0 .54.16.68.47l3.9 8.5c.1.17.1.33.03.48a.68.68 0 0 1-.34.35c-.41.18-.71.07-.9-.31l-3.32-7.42-3.4 7.4a.65.65 0 0 1-.4.36.73.73 0 0 1-.52-.05.77.77 0 0 1-.36-.34.62.62 0 0 1 .02-.49l3.96-8.48c.15-.31.36-.47.65-.47Zm11.25 9.94a4.8 4.8 0 0 1-4.23-2.45 5.17 5.17 0 0 1-.63-2.55 4.84 4.84 0 0 1 2.45-4.36c.75-.44 1.6-.67 2.55-.67a4.86 4.86 0 0 1 4.32 2.45c.44.76.67 1.62.69 2.58v4.23c0 .2-.07.37-.2.5a.72.72 0 0 1-.5.18.72.72 0 0 1-.51-.18.68.68 0 0 1-.2-.5v-1.1c-.4.57-.94 1.03-1.58 1.37-.65.33-1.37.5-2.16.5Zm.14-1.26a3.53 3.53 0 0 0 3.15-1.82c.33-.57.49-1.22.49-1.92a3.8 3.8 0 0 0-.49-1.93c-.31-.56-.74-1-1.3-1.33a3.44 3.44 0 0 0-1.85-.5 3.59 3.59 0 0 0-3.17 1.84 3.8 3.8 0 0 0-.48 1.92 3.59 3.59 0 0 0 3.65 3.74Z"/>
  <symbol>
</svg>
